# xmcd CD database file
#
# Track frame offsets:
#	150
#	19015
#	34700
#	51130
#
# Disc length: 931 seconds
#
# Revision: 1
# Processed by: cddbd v1.5.1PL0 Copyright (c) Steve Scherf et al.
# Submitted via: CDex 1.51
#
DISCID=2703a104
DTITLE=小松 未歩 - I 〜誰か...
DYEAR=2004
DGENRE=JPop
TTITLE0=I 〜誰か...
TTITLE1=カムフラージュ
TTITLE2=sun and moon
TTITLE3=I 〜誰か...(Instrumental)
EXTD=YEAR: 2004
EXTT0=
EXTT1=
EXTT2=
EXTT3=
PLAYORDER=
